<?xml version="1.0" standalone="no"?>
<!DOCTYPE svg PUBLIC "-//W3C//DTD SVG 20010904//EN"
 "http://www.w3.org/TR/2001/REC-SVG-20010904/DTD/svg10.dtd">
<svg version="1.0" xmlns="http://www.w3.org/2000/svg"
 width="348.000000pt" height="349.000000pt" viewBox="0 0 348.000000 349.000000"
 preserveAspectRatio="xMidYMid meet">

<g transform="translate(0.000000,349.000000) scale(0.100000,-0.100000)"
fill="#000000" stroke="none">
<path d="M1076 3480 c-274 -44 -551 -189 -731 -382 -167 -180 -262 -362 -317
-609 -30 -134 -32 -358 -4 -489 53 -253 172 -476 346 -650 202 -201 459 -323
754 -360 275 -35 627 55 844 214 34 25 66 46 71 46 13 0 49 -53 63 -90 8 -26
7 -42 -7 -85 l-18 -53 26 -44 c30 -52 272 -310 645 -690 281 -285 296 -296
374 -283 37 7 60 25 195 158 163 160 173 176 159 253 -8 41 -31 66 -555 603
-190 194 -362 365 -383 378 -28 19 -45 24 -68 19 -16 -3 -43 -9 -60 -12 -41
-9 -68 0 -117 36 l-43 32 39 56 c86 128 162 311 195 474 18 89 22 347 6 445
-41 250 -164 487 -350 674 -174 175 -395 294 -636 344 -93 19 -345 28 -428 15z
m446 -420 c231 -77 414 -241 517 -462 53 -112 70 -183 78 -310 28 -482 -332
-886 -814 -915 -443 -26 -832 288 -904 731 -16 101 -6 270 21 364 74 262 276
484 525 578 121 45 178 54 335 50 133 -3 153 -6 242 -36z"/>
</g>
</svg>
